<?xml version="1.0" encoding="UTF-8" standalone="no"?>
<!-- Created with Inkscape (http://www.inkscape.org/) -->

<svg
   width="1000"
   height="1000"
   viewBox="0 0 264.58333 264.58334"
   version="1.1"
   id="svg5"
   inkscape:version="1.1.1 (3bf5ae0d25, 2021-09-20)"
   sodipodi:docname="TRT_Claw.svg"
   inkscape:export-filename="C:\Users\qphys\Code\GameModeCollection\TRT_Assets\TRT_Claw.png"
   inkscape:export-xdpi="96"
   inkscape:export-ydpi="96"
   xmlns:inkscape="http://www.inkscape.org/namespaces/inkscape"
   xmlns:sodipodi="http://sodipodi.sourceforge.net/DTD/sodipodi-0.dtd"
   xmlns="http://www.w3.org/2000/svg"
   xmlns:svg="http://www.w3.org/2000/svg">
  <sodipodi:namedview
     id="namedview7"
     pagecolor="#505050"
     bordercolor="#ffffff"
     borderopacity="1"
     inkscape:pageshadow="0"
     inkscape:pageopacity="0"
     inkscape:pagecheckerboard="1"
     inkscape:document-units="px"
     showgrid="false"
     units="px"
     inkscape:zoom="0.52410025"
     inkscape:cx="442.66341"
     inkscape:cy="699.2937"
     inkscape:window-width="1920"
     inkscape:window-height="1017"
     inkscape:window-x="-32000"
     inkscape:window-y="-32000"
     inkscape:window-maximized="0"
     inkscape:current-layer="layer1"
     showguides="true"
     inkscape:guide-bbox="true" />
  <defs
     id="defs2" />
  <g
     inkscape:label="Layer 1"
     inkscape:groupmode="layer"
     id="layer1">
    <path
       id="rect4774-9"
       style="fill:#466100;fill-opacity:1;stroke:none;stroke-width:1.82273;stroke-linejoin:round;stroke-opacity:1"
       d="m 58.863281,114.7168 c -4.283552,0.13376 -8.191168,2.3414 -11.3775,5.06792 -12.116195,9.78289 -24.376473,19.38625 -36.435,29.24067 -6.7557849,6.48616 -8.4617408,17.59017 -3.870184,25.77215 2.6137919,4.32217 4.856365,8.87522 7.803275,12.99223 3.977758,4.93837 11.205479,7.10694 17.162828,4.75313 4.263972,-1.56551 7.441356,-4.95262 11.015651,-7.61041 10.782078,-8.63527 21.64205,-17.17359 32.311878,-25.94538 6.905966,-6.80665 8.31988,-18.5071 3.026389,-26.67539 -2.403384,-4.02051 -4.483164,-8.25936 -7.28064,-12.03295 -3.007107,-3.57009 -7.671793,-5.74686 -12.356697,-5.56197 z" />
    <path
       id="path1073-4-2"
       style="font-variation-settings:normal;vector-effect:none;fill:#466100;fill-opacity:1;stroke:none;stroke-width:1.32292;stroke-linecap:butt;stroke-linejoin:miter;stroke-miterlimit:4;stroke-dasharray:none;stroke-dashoffset:0;stroke-opacity:1;-inkscape-stroke:none;stop-color:#000000"
       d="m 158.86523,73.970703 c -17.06821,0.494982 -33.73775,5.673965 -48.89026,13.36098 -12.320418,6.231356 -23.764893,14.085887 -34.480829,22.767927 -0.316505,14.71678 -0.633283,29.43356 -0.947266,44.15039 13.359427,-12.23633 27.513915,-23.82707 43.519405,-32.47926 9.02534,-4.85861 18.54821,-8.78709 28.60843,-10.84669 9.52623,-1.96974 19.50549,-2.07365 28.97448,0.31612 6.01058,1.47243 11.78153,3.9238 17.10235,7.18297 8.30767,5.03756 15.57568,11.96258 21.68243,19.58959 10.21718,12.74319 17.49323,27.51595 23.51638,42.63871 0.56532,1.38118 1.13063,2.76237 1.69613,4.14348 2.19474,-10.99959 3.47944,-22.29263 2.38571,-33.50156 -1.62007,-18.48189 -8.77166,-36.61329 -21.00886,-50.64851 -11.46832,-13.238505 -27.55285,-22.425103 -44.82997,-25.388991 -5.71313,-1.01717 -11.52747,-1.416757 -17.32813,-1.285156 z" />
    <path
       id="path1073-4-5-4"
       style="font-variation-settings:normal;vector-effect:none;fill:#466100;fill-opacity:1;stroke:none;stroke-width:1.32292;stroke-linecap:butt;stroke-linejoin:miter;stroke-miterlimit:4;stroke-dasharray:none;stroke-dashoffset:0;stroke-opacity:1;-inkscape-stroke:none;stop-color:#000000"
       d="m 136.39453,89.511719 c -16.79437,0.533342 -33.19489,5.582282 -48.133761,13.094641 -12.508626,6.28189 -24.122056,14.22373 -34.987331,23.02059 -0.317818,13.83919 -0.637191,27.67835 -0.953126,41.51758 12.012582,-11.00759 24.65712,-21.4632 38.806612,-29.65326 9.267956,-5.35678 19.109276,-9.77022 29.554996,-12.26246 8.05857,-1.92146 16.43207,-2.5877 24.68384,-1.47071 8.28424,1.08096 16.40429,3.90769 23.5636,8.27944 10.87431,6.49595 19.76846,15.8794 27.00766,26.16781 7.80246,11.00601 13.79018,23.18736 18.83805,35.65113 0.8937,2.15262 1.76127,4.316 2.6429,6.4736 2.17329,-10.86409 3.46254,-22.01121 2.4354,-33.08723 -1.54067,-18.45292 -8.59177,-36.57643 -20.69647,-50.67561 -10.68494,-12.42491 -25.35504,-21.445941 -41.38178,-25.004824 -6.99797,-1.596708 -14.20817,-2.248273 -21.38059,-2.050697 z" />
    <path
       id="path1073-4-3-4"
       style="font-variation-settings:normal;vector-effect:none;fill:#466100;fill-opacity:1;stroke:none;stroke-width:1.32292;stroke-linecap:butt;stroke-linejoin:miter;stroke-miterlimit:4;stroke-dasharray:none;stroke-dashoffset:0;stroke-opacity:1;-inkscape-stroke:none;stop-color:#000000"
       d="m 112.42773,106.22852 c -17.547404,0.47498 -34.671466,5.87977 -50.18154,13.9059 -11.924645,6.14662 -23.027027,13.79451 -33.435643,22.23472 -0.318718,15.42119 -0.633532,30.84246 -0.951172,46.26367 12.713432,-11.65336 26.161473,-22.7183 41.150391,-31.30664 9.761924,-5.59656 20.219884,-10.21033 31.279294,-12.57812 9.17882,-1.97963 18.81046,-2.31393 28.05218,-0.2835 11.28381,2.37469 21.60872,8.38584 30.06901,16.15373 9.04055,8.27981 16.25035,18.48767 22.121,29.12977 3.92496,7.12663 7.25846,14.57996 10.32227,22.13281 0.28349,0.88812 1.33538,1.21731 2.13476,0.82812 0.93555,-0.36822 1.10311,-1.42726 1.17737,-2.30429 2.63581,-15.33465 2.04262,-31.33443 -2.60555,-46.23083 -4.52811,-14.68633 -12.84018,-28.31256 -24.40694,-38.50602 -10.42445,-9.27105 -23.43197,-15.57186 -37.15511,-18.05846 -5.78926,-1.0645 -11.68624,-1.4975 -17.57032,-1.38086 z" />
    <path
       id="rect4774-9-5"
       style="fill:#466100;fill-opacity:0.504673;stroke:none;stroke-width:1.82273;stroke-linejoin:round;stroke-opacity:1"
       d="m 58.345703,112.0918 c -5.16539,0.33385 -9.785591,3.14472 -13.585516,6.48865 -11.969692,9.6692 -24.120172,19.11828 -35.9543948,28.95267 -7.5533799,7.60313 -9.08299079,20.47493 -3.3409484,29.56063 2.820095,4.63224 5.0987772,9.7327 8.7906762,13.81327 5.42786,5.46054 14.607493,6.93044 21.294131,2.95285 4.324228,-2.38303 7.805647,-5.95517 11.763083,-8.85716 10.166664,-8.15721 20.454789,-16.16598 30.42733,-24.55828 7.447288,-7.70548 8.807364,-20.58732 2.963061,-29.60459 -2.836306,-4.62244 -5.033402,-9.73376 -8.830318,-13.69029 -3.565473,-3.43588 -8.577474,-5.33273 -13.527104,-5.05775 z" />
    <path
       id="path1073-4-2-8"
       style="font-variation-settings:normal;vector-effect:none;fill:#466100;fill-opacity:0.504673;stroke:none;stroke-width:1.32292;stroke-linecap:butt;stroke-linejoin:miter;stroke-miterlimit:4;stroke-dasharray:none;stroke-dashoffset:0;stroke-opacity:1;-inkscape-stroke:none;stop-color:#000000"
       d="M 158.83789,71.324219 C 139.89889,71.901248 121.46877,78.00127 104.91797,87 c -11.387116,6.158631 -22.010825,13.64571 -32.041017,21.81055 -0.368635,17.18748 -0.737803,34.37495 -1.103515,51.5625 14.934413,-13.80897 30.508292,-27.28395 48.591932,-36.80981 11.15225,-5.90742 23.34981,-10.40096 36.04674,-11.30738 5.16196,-0.34971 10.41496,-0.099 15.50214,0.87455 9.25942,1.7214 17.97226,5.90634 25.43635,11.656 8.78033,6.71086 15.95017,15.3167 21.94401,24.50007 6.76447,10.43896 11.99322,21.78907 16.6157,33.34431 1.52937,3.74659 3.0594,7.49293 4.59164,11.23835 2.75183,-12.68166 5.09352,-25.61588 4.46206,-38.64948 -0.89646,-19.06975 -7.43464,-37.99283 -19.25809,-53.06092 -12.09795,-15.534644 -30.10553,-26.368593 -49.54436,-29.595375 -5.71594,-0.980012 -11.52742,-1.339627 -17.32367,-1.239146 z" />
    <path
       id="path1073-4-5-4-5"
       style="font-variation-settings:normal;vector-effect:none;fill:#466100;fill-opacity:0.504673;stroke:none;stroke-width:1.32292;stroke-linecap:butt;stroke-linejoin:miter;stroke-miterlimit:4;stroke-dasharray:none;stroke-dashoffset:0;stroke-opacity:1;-inkscape-stroke:none;stop-color:#000000"
       d="m 136.12109,86.876953 c -18.46632,0.647987 -36.441411,6.530769 -52.63139,15.236877 -11.683755,6.23575 -22.565866,13.88018 -32.83345,22.22211 -0.373134,16.31575 -0.748259,32.63146 -1.119141,48.94726 14.731306,-13.65241 30.140802,-26.96591 48.034199,-36.30822 8.909592,-4.6707 18.411262,-8.37142 28.348612,-10.1117 5.80615,-1.02707 11.88716,-1.28973 17.84027,-0.62329 4.26651,0.47018 8.61365,1.42513 12.67304,2.8375 12.72328,4.38856 23.41601,13.28952 31.91132,23.54517 10.25247,12.42628 17.71085,26.85806 23.76334,41.713 2.05668,5.02155 4.10008,10.04861 6.15578,15.07059 2.8635,-13.14007 5.29143,-26.57449 4.39843,-40.07844 -1.25898,-20.70362 -9.234,-41.18115 -23.32975,-56.52557 C 186.68767,99.018245 169.0873,89.827438 150.49427,87.589968 145.73261,86.965416 140.92101,86.76142 136.12109,86.876953 Z" />
    <path
       id="path1073-4-3-4-0"
       style="font-variation-settings:normal;vector-effect:none;fill:#466100;fill-opacity:0.504673;stroke:none;stroke-width:1.32292;stroke-linecap:butt;stroke-linejoin:miter;stroke-miterlimit:4;stroke-dasharray:none;stroke-dashoffset:0;stroke-opacity:1;-inkscape-stroke:none;stop-color:#000000"
       d="m 112.41211,103.58203 c -19.000623,0.53775 -37.509088,6.62359 -54.115235,15.65235 -11.405057,6.17409 -22.058948,13.66051 -32.103516,21.8457 -0.370648,17.89189 -0.738386,35.78385 -1.107421,53.67578 14.633068,-13.54789 29.887437,-26.71494 47.438196,-36.35686 8.722576,-4.78786 17.866678,-8.72279 27.618546,-10.8989 9.46598,-2.1222 19.36555,-2.45979 28.80181,-0.17884 10.44194,2.45539 19.92942,8.1102 27.76405,15.35097 10.34929,9.50337 18.14736,21.47452 24.41568,33.94435 2.75018,5.46878 5.14737,11.10616 7.51973,16.74445 0.86993,1.7398 3.04707,2.56449 4.87312,1.95015 1.73439,-0.48655 3.07026,-2.09996 3.14997,-3.91136 3.32881,-18.49249 1.87144,-38.00255 -5.23076,-55.47132 -6.31584,-15.63016 -17.09773,-29.58453 -31.2022,-38.92537 -12.59948,-8.37436 -27.61038,-12.98519 -42.72021,-13.37081 -1.69994,-0.0591 -3.40101,-0.0632 -5.10176,-0.0503 z" />
    <rect
       style="fill:#202020;fill-opacity:1;stroke:none;stroke-width:1.83311;stroke-linejoin:round;stroke-opacity:1"
       id="rect4774"
       width="79.690338"
       height="44.467266"
       x="-79.881577"
       y="126.82668"
       transform="matrix(0.78166741,-0.62369549,0.49951872,0.86630309,0,0)"
       ry="16.313099" />
    <path
       id="path1073-4"
       style="font-variation-settings:normal;vector-effect:none;fill:#0a0a0a;fill-opacity:1;stroke:#000000;stroke-width:1.32292;stroke-linecap:butt;stroke-linejoin:miter;stroke-miterlimit:4;stroke-dasharray:none;stroke-dashoffset:0;stroke-opacity:1;-inkscape-stroke:none;stop-color:#000000"
       d="M 77.587593,111.13265 C 175.29186,31.9686 252.08596,101.11247 238.82736,177.21348 211.96383,109.98633 159.58773,74.135313 76.762208,149.39489 Z"
       sodipodi:nodetypes="cccc" />
    <path
       id="path1073-4-5"
       style="font-variation-settings:normal;vector-effect:none;fill:#161616;fill-opacity:1;stroke:#000000;stroke-width:1.32292;stroke-linecap:butt;stroke-linejoin:miter;stroke-miterlimit:4;stroke-dasharray:none;stroke-dashoffset:0;stroke-opacity:1;-inkscape-stroke:none;stop-color:#000000"
       d="M 55.367695,126.6647 C 153.07196,47.500634 229.86606,116.64458 216.60746,192.7455 189.74393,125.5184 137.36779,87.021514 54.54231,162.28108 Z"
       sodipodi:nodetypes="cccc" />
    <path
       id="path1073-4-3"
       style="font-variation-settings:normal;vector-effect:none;fill:#202020;fill-opacity:1;stroke:#000000;stroke-width:1.32292;stroke-linecap:butt;stroke-linejoin:miter;stroke-miterlimit:4;stroke-dasharray:none;stroke-dashoffset:0;stroke-opacity:1;-inkscape-stroke:none;stop-color:#000000"
       d="M 30.904345,143.40003 C 128.60846,64.236049 205.40256,133.37991 192.14396,209.48083 165.28043,142.25373 112.9043,108.51943 30.07896,183.77891"
       sodipodi:nodetypes="ccc" />
  </g>
</svg>
