<?xml version="1.0" encoding="UTF-8" standalone="no"?>
<!-- Created with Inkscape (http://www.inkscape.org/) -->

<svg
   width="1000"
   height="1000"
   viewBox="0 0 264.58333 264.58334"
   version="1.1"
   id="svg2800"
   inkscape:version="1.1.1 (3bf5ae0d25, 2021-09-20)"
   sodipodi:docname="TRT_Interact.svg"
   inkscape:export-filename="C:\Users\qphys\Code\GameModeCollection\TRT_Assets\TRT_TraitorInteract.png"
   inkscape:export-xdpi="96"
   inkscape:export-ydpi="96"
   xmlns:inkscape="http://www.inkscape.org/namespaces/inkscape"
   xmlns:sodipodi="http://sodipodi.sourceforge.net/DTD/sodipodi-0.dtd"
   xmlns="http://www.w3.org/2000/svg"
   xmlns:svg="http://www.w3.org/2000/svg">
  <sodipodi:namedview
     id="namedview2802"
     pagecolor="#505050"
     bordercolor="#ffffff"
     borderopacity="1"
     inkscape:pageshadow="0"
     inkscape:pageopacity="0"
     inkscape:pagecheckerboard="1"
     inkscape:document-units="px"
     showgrid="false"
     units="px"
     width="1000px"
     inkscape:snap-page="true"
     inkscape:snap-bbox="true"
     inkscape:bbox-paths="true"
     inkscape:bbox-nodes="true"
     inkscape:zoom="0.832"
     inkscape:cx="363.58173"
     inkscape:cy="454.92788"
     inkscape:window-width="1920"
     inkscape:window-height="1017"
     inkscape:window-x="-8"
     inkscape:window-y="-8"
     inkscape:window-maximized="1"
     inkscape:current-layer="layer1" />
  <defs
     id="defs2797">
    <filter
       inkscape:collect="always"
       style="color-interpolation-filters:sRGB"
       id="filter35179"
       x="-0.06527581"
       y="-0.068270201"
       width="1.1305516"
       height="1.1365404">
      <feGaussianBlur
         inkscape:collect="always"
         stdDeviation="3.2475945"
         id="feGaussianBlur35181" />
    </filter>
    <filter
       inkscape:collect="always"
       style="color-interpolation-filters:sRGB"
       id="filter35183"
       x="-0.14652248"
       y="-0.11847767"
       width="1.2935928"
       height="1.2401197">
      <feGaussianBlur
         inkscape:collect="always"
         stdDeviation="3.2475945"
         id="feGaussianBlur35185" />
    </filter>
  </defs>
  <g
     inkscape:label="Layer 1"
     inkscape:groupmode="layer"
     id="layer1">
    <path
       id="path34565-5"
       style="fill:#000000;fill-opacity:0.75;stroke:none;stroke-width:0.634674;stroke-opacity:1;filter:url(#filter35179)"
       d="m 118.32031,30.019531 c -18.05283,0.44431 -35.784767,9.582795 -46.286425,24.330969 -12.263412,16.988471 -14.753606,40.525063 -6.267977,59.6868 5.55927,12.68771 15.645264,23.49437 28.280382,29.30763 3.320145,1.40421 7.59942,1.1038 10.20638,-1.57506 3.39093,-3.33872 3.21887,-9.63518 -0.59274,-12.5922 -3.31469,-2.89061 -7.661862,-4.31218 -10.810186,-7.42364 -6.595758,-5.644 -11.355837,-13.3393 -13.252447,-21.833375 -0.997241,-4.59243 -0.937152,-9.329378 -0.803157,-14.001654 0.154286,-4.295528 0.967534,-8.592292 2.735474,-12.526968 1.888786,-4.523765 4.604052,-8.713852 7.896337,-12.272327 6.288777,-6.851844 14.969419,-11.461478 24.169749,-12.826737 1.39267,-0.19845 2.77827,-0.316248 4.21094,-0.351563 5.2609,-0.161989 10.57466,0.248465 15.6429,1.795333 10.43723,3.300001 19.54162,10.770075 24.58171,20.515214 2.58324,4.940103 4.10778,10.598583 4.3557,16.143001 0.30247,6.271307 -0.52126,12.573148 -1.946,18.646766 -0.65705,3.18914 -0.0617,6.94655 2.55551,9.12486 3.42365,3.00402 9.36467,2.75582 12.23206,-0.90291 2.35631,-3.07612 3.02265,-7.00307 3.84722,-10.68963 1.44699,-7.755094 1.37192,-15.74224 0.34244,-23.543862 -2.79222,-17.514276 -14.33537,-33.250185 -29.92282,-41.600276 -9.50398,-5.154129 -20.37999,-7.656212 -31.17505,-7.410371 z m 0.85742,21.158203 c -11.01897,0.10425 -21.995984,5.121043 -28.95214,13.729413 -5.552001,6.508393 -8.569883,15.071668 -8.452516,23.616517 -0.235506,8.486367 1.74858,17.264616 6.797515,24.210006 1.892112,2.59371 4.167768,5.15499 7.242759,6.31559 3.22027,0.98802 6.762412,-0.57305 8.777582,-3.14402 2.26579,-2.41383 2.93598,-6.35073 1.12597,-9.21624 -1.44544,-2.76534 -3.89245,-4.97833 -4.74665,-8.051071 -1.339001,-3.627742 -1.7472,-7.544994 -1.431188,-11.317617 0.29171,-4.666499 2.197498,-9.233452 5.468718,-12.596088 3.27795,-3.457539 7.95666,-5.457011 12.70511,-5.612896 4.55072,-0.254665 9.48549,-0.09014 13.6247,2.158154 4.78413,2.580143 8.24563,7.358479 9.61944,12.55669 0.6738,2.534987 0.84463,5.110257 0.69315,7.763971 -0.14258,2.804736 -0.86152,5.527513 -1.47718,8.25234 -0.55562,2.889107 -0.18028,6.230297 2.01935,8.376107 3.1863,3.2322 8.95538,3.18764 12.13773,-0.0311 2.57962,-2.64071 3.48932,-6.37598 4.24927,-9.874558 2.25775,-10.907779 0.0607,-22.799114 -6.44068,-31.906692 -5.2282,-7.303477 -13.40166,-12.225492 -22.09133,-14.227795 -3.55411,-0.836058 -7.22853,-1.048614 -10.86961,-1.000721 z"
       inkscape:export-filename="C:\Users\qphys\Code\GameModeCollection\TRT_Assets\TRT_Interact_Shadow.png"
       inkscape:export-xdpi="96"
       inkscape:export-ydpi="96" />
    <path
       style="fill:none;fill-opacity:0.5;stroke:#000000;stroke-width:18.52083345;stroke-miterlimit:4;stroke-dasharray:none;stroke-opacity:0.75;filter:url(#filter35183);stroke-linejoin:round"
       d="m 143.94193,222.58058 c -5.63973,-1.11468 -9.09208,-2.37568 -14.27439,-5.21402 -8.19726,-4.48966 -11.87201,-8.19666 -30.79783,-31.06845 -9.99784,-12.08228 -18.72545,-22.86586 -19.39477,-23.96353 -4.55819,-7.47528 3.89371,-17.87618 12.61368,-15.52239 2.96225,0.79961 4.62227,2.35461 11.62053,10.88494 l 5.64309,6.87843 0.015,-36.70808 c 0.015,-34.36126 0.0893,-36.87361 1.18964,-39.2967 3.89087,-8.56697 16.44025,-8.44969 20.13614,0.18816 0.65966,1.54173 0.87383,5.71491 0.87383,17.02635 v 14.98402 l 1.93738,-1.93735 c 2.3801,-2.38011 6.21647,-3.49151 10.06163,-2.91489 2.24389,0.3365 3.4902,1.03659 5.59849,3.1449 1.49653,1.4965 2.71211,3.31836 2.71211,4.06488 0,1.78681 0.37405,1.71118 2.61375,-0.52856 3.20168,-3.20174 7.98819,-3.97386 12.35094,-1.99239 3.11524,1.41489 5.10345,3.79381 6.02218,7.20582 l 0.6814,2.5316 1.70051,-1.5849 c 2.56405,-2.38978 4.44123,-3.1558 7.73339,-3.1558 4.01418,0 7.37099,1.71232 9.41455,4.80234 4.13482,8.10902 2.94139,19.53197 2.92308,28.6198 -0.045,24.6458 -1.41282,26.34293 -2.71122,31.14369 -4.25061,15.71784 -14.6878,27.03095 -28.94605,31.37534 -5.69198,1.73431 -13.98287,2.17029 -19.71765,1.03679 z"
       id="path30771-4-9"
       inkscape:export-filename="C:\Users\qphys\Code\GameModeCollection\TRT_Assets\TRT_Interact_Shadow.png"
       inkscape:export-xdpi="96"
       inkscape:export-ydpi="96" />
    <path
       style="fill:#ffffff;stroke-width:0.634674;fill-opacity:0.5;stroke:none;stroke-opacity:1"
       d="m 94.9589,111.39254 c -4.82648,-5.11759 -7.501693,-13.10375 -7.415567,-22.1372 0.08925,-9.3334 2.596287,-15.82208 8.589077,-22.22838 6.15598,-6.580736 14.33518,-10.001219 24.00926,-10.040458 8.72619,-0.03526 15.00451,2.023772 21.92337,7.190452 8.89381,6.641486 13.4768,20.566696 10.84101,32.940106 -1.18905,5.58209 -2.41024,7.68779 -4.45834,7.68779 -2.76795,0 -3.29013,-1.50792 -2.08647,-6.02507 3.97835,-14.93026 -2.28633,-28.91048 -15.25091,-34.033696 -5.28568,-2.08875 -16.00824,-2.09236 -21.28343,-0.007 C 99.02518,69.00877 92.90637,79.08851 93.64804,91.39087 c 0.38531,6.39406 2.06414,11.35726 5.2545,15.53558 2.55708,3.34885 2.63205,3.79218 0.9296,5.49465 -1.7487,1.74865 -2.37973,1.61548 -4.87324,-1.0284 z"
       id="path34567"
       inkscape:export-filename="C:\Users\qphys\Code\GameModeCollection\TRT_Assets\TRT_Interact.png"
       inkscape:export-xdpi="96"
       inkscape:export-ydpi="96" />
    <path
       style="fill:#ffffff;stroke-width:0.634674;fill-opacity:0.5;stroke:none;stroke-opacity:1"
       d="M 92.21605,135.91167 C 70.603393,122.65634 61.334112,96.55618 69.494944,71.9343 77.430656,47.991734 101.22073,33.135825 126.68423,36.221958 c 22.60507,2.739684 40.45669,18.072477 46.22797,39.705242 1.92868,7.22951 1.92832,20.72784 -6e-4,27.85709 -1.57891,5.83481 -2.26818,6.86587 -4.41627,6.60605 -2.6807,-0.32429 -3.05431,-1.79778 -1.7688,-6.97593 1.54961,-6.24189 2.00612,-15.8748 1.03995,-21.94443 -2.82133,-17.723776 -15.48607,-32.000197 -33.34466,-37.587772 -5.59429,-1.750326 -16.15591,-2.376845 -22.23177,-1.318785 -18.70512,3.257364 -33.308218,16.613921 -38.212185,34.950457 -1.526675,5.70846 -1.481466,19.04218 0.0839,24.75227 3.507228,12.79344 11.69728,23.33429 22.677565,29.1867 3.86981,2.06261 4.86987,3.58574 3.74035,5.69635 -1.06003,1.98072 -3.64845,1.59308 -8.26359,-1.23753 z"
       id="path34565"
       inkscape:export-filename="C:\Users\qphys\Code\GameModeCollection\TRT_Assets\TRT_Interact.png"
       inkscape:export-xdpi="96"
       inkscape:export-ydpi="96" />
    <path
       style="fill:none;stroke-width:6.16479171;fill-opacity:0.5;stroke:#ffffff;stroke-opacity:0.50196081;stroke-miterlimit:4;stroke-dasharray:none;stroke-linecap:butt;stroke-linejoin:round"
       d="m 143.94193,222.58058 c -5.63973,-1.11468 -9.09208,-2.37568 -14.27439,-5.21402 -8.19726,-4.48966 -11.87201,-8.19666 -30.79783,-31.06845 -9.99784,-12.08228 -18.725453,-22.86586 -19.394773,-23.96353 -4.558187,-7.47528 3.893719,-17.87618 12.613683,-15.52239 2.96225,0.79961 4.62227,2.35461 11.62053,10.88494 l 5.64309,6.87843 0.015,-36.70808 c 0.015,-34.36126 0.0893,-36.87361 1.18964,-39.2967 3.89087,-8.56697 16.44025,-8.44969 20.13614,0.18816 0.65966,1.54173 0.87383,5.71491 0.87383,17.02635 v 14.98402 l 1.93738,-1.93735 c 2.3801,-2.38011 6.21647,-3.49151 10.06163,-2.91489 2.24389,0.3365 3.4902,1.03659 5.59849,3.1449 1.49653,1.4965 2.71211,3.31836 2.71211,4.06488 0,1.78681 0.37405,1.71118 2.61375,-0.52856 3.20168,-3.20174 7.98819,-3.97386 12.35094,-1.99239 3.11524,1.41489 5.10345,3.79381 6.02218,7.20582 l 0.6814,2.5316 1.70051,-1.5849 c 2.56405,-2.38978 4.44123,-3.1558 7.73339,-3.1558 4.01418,0 7.37099,1.71232 9.41455,4.80234 4.13482,8.10902 2.94139,19.53197 2.92308,28.6198 -0.045,24.6458 -1.41282,26.34293 -2.71122,31.14369 -4.25061,15.71784 -14.6878,27.03095 -28.94605,31.37534 -5.69198,1.73431 -13.98287,2.17029 -19.71765,1.03679 z"
       id="path30771-4"
       inkscape:export-filename="C:\Users\qphys\Code\GameModeCollection\TRT_Assets\TRT_Interact.png"
       inkscape:export-xdpi="96"
       inkscape:export-ydpi="96" />
  </g>
</svg>
