<?xml version="1.0" encoding="UTF-8" standalone="no"?>
<!-- Created with Inkscape (http://www.inkscape.org/) -->

<svg
   width="1000"
   height="1000"
   viewBox="0 0 264.58333 264.58334"
   version="1.1"
   id="svg5"
   inkscape:version="1.1.1 (3bf5ae0d25, 2021-09-20)"
   sodipodi:docname="TRT_Claw.svg"
   inkscape:export-filename="C:\Users\qphys\Code\GameModeCollection\TRT_Assets\TRT_Claw.png"
   inkscape:export-xdpi="96"
   inkscape:export-ydpi="96"
   xmlns:inkscape="http://www.inkscape.org/namespaces/inkscape"
   xmlns:sodipodi="http://sodipodi.sourceforge.net/DTD/sodipodi-0.dtd"
   xmlns="http://www.w3.org/2000/svg"
   xmlns:svg="http://www.w3.org/2000/svg">
  <sodipodi:namedview
     id="namedview7"
     pagecolor="#505050"
     bordercolor="#ffffff"
     borderopacity="1"
     inkscape:pageshadow="0"
     inkscape:pageopacity="0"
     inkscape:pagecheckerboard="1"
     inkscape:document-units="px"
     showgrid="false"
     units="px"
     inkscape:zoom="0.74118968"
     inkscape:cx="398.68337"
     inkscape:cy="714.39203"
     inkscape:window-width="1920"
     inkscape:window-height="1017"
     inkscape:window-x="0"
     inkscape:window-y="0"
     inkscape:window-maximized="0"
     inkscape:current-layer="layer1"
     showguides="true"
     inkscape:guide-bbox="true" />
  <defs
     id="defs2">
    <filter
       inkscape:collect="always"
       style="color-interpolation-filters:sRGB"
       id="filter1624"
       x="-0.03365068"
       y="-0.051768031"
       width="1.0673014"
       height="1.1035361">
      <feGaussianBlur
         inkscape:collect="always"
         stdDeviation="2.4599758"
         id="feGaussianBlur1626" />
    </filter>
    <filter
       inkscape:collect="always"
       style="color-interpolation-filters:sRGB"
       id="filter1628"
       x="-0.033644331"
       y="-0.046420821"
       width="1.0672887"
       height="1.0928416">
      <feGaussianBlur
         inkscape:collect="always"
         stdDeviation="2.4599758"
         id="feGaussianBlur1630" />
    </filter>
    <filter
       inkscape:collect="always"
       style="color-interpolation-filters:sRGB"
       id="filter1632"
       x="-0.033648543"
       y="-0.046417926"
       width="1.0672971"
       height="1.0928359">
      <feGaussianBlur
         inkscape:collect="always"
         stdDeviation="2.4599758"
         id="feGaussianBlur1634" />
    </filter>
    <filter
       inkscape:collect="always"
       style="color-interpolation-filters:sRGB"
       id="filter1636"
       x="-0.069909329"
       y="-0.068528504"
       width="1.1398187"
       height="1.137057">
      <feGaussianBlur
         inkscape:collect="always"
         stdDeviation="2.4599758"
         id="feGaussianBlur1638" />
    </filter>
  </defs>
  <g
     inkscape:label="Layer 1"
     inkscape:groupmode="layer"
     id="layer1">
    <path
       id="rect4774-9"
       style="fill:#466100;fill-opacity:1;stroke:none;stroke-width:1.82273;stroke-linejoin:round;stroke-opacity:1"
       d="m 58.863281,114.7168 c -4.283552,0.13376 -8.191168,2.3414 -11.3775,5.06792 -12.116195,9.78289 -24.376473,19.38625 -36.435,29.24067 -6.7557849,6.48616 -8.4617408,17.59017 -3.870184,25.77215 2.6137919,4.32217 4.856365,8.87522 7.803275,12.99223 3.977758,4.93837 11.205479,7.10694 17.162828,4.75313 4.263972,-1.56551 7.441356,-4.95262 11.015651,-7.61041 10.782078,-8.63527 21.64205,-17.17359 32.311878,-25.94538 6.905966,-6.80665 8.31988,-18.5071 3.026389,-26.67539 -2.403384,-4.02051 -4.483164,-8.25936 -7.28064,-12.03295 -3.007107,-3.57009 -7.671793,-5.74686 -12.356697,-5.56197 z" />
    <path
       id="path1073-4-2"
       style="font-variation-settings:normal;vector-effect:none;fill:#466100;fill-opacity:1;stroke:none;stroke-width:1.32292;stroke-linecap:butt;stroke-linejoin:miter;stroke-miterlimit:4;stroke-dasharray:none;stroke-dashoffset:0;stroke-opacity:1;-inkscape-stroke:none;stop-color:#000000"
       d="m 158.86523,73.970703 c -17.06821,0.494982 -33.73775,5.673965 -48.89026,13.36098 -12.320418,6.231356 -23.764893,14.085887 -34.480829,22.767927 -0.316505,14.71678 -0.633283,29.43356 -0.947266,44.15039 13.359427,-12.23633 27.513915,-23.82707 43.519405,-32.47926 9.02534,-4.85861 18.54821,-8.78709 28.60843,-10.84669 9.52623,-1.96974 19.50549,-2.07365 28.97448,0.31612 6.01058,1.47243 11.78153,3.9238 17.10235,7.18297 8.30767,5.03756 15.57568,11.96258 21.68243,19.58959 10.21718,12.74319 17.49323,27.51595 23.51638,42.63871 0.56532,1.38118 1.13063,2.76237 1.69613,4.14348 2.19474,-10.99959 3.47944,-22.29263 2.38571,-33.50156 -1.62007,-18.48189 -8.77166,-36.61329 -21.00886,-50.64851 -11.46832,-13.238505 -27.55285,-22.425103 -44.82997,-25.388991 -5.71313,-1.01717 -11.52747,-1.416757 -17.32813,-1.285156 z" />
    <path
       id="path1073-4-5-4"
       style="font-variation-settings:normal;vector-effect:none;fill:#466100;fill-opacity:1;stroke:none;stroke-width:1.32292;stroke-linecap:butt;stroke-linejoin:miter;stroke-miterlimit:4;stroke-dasharray:none;stroke-dashoffset:0;stroke-opacity:1;-inkscape-stroke:none;stop-color:#000000"
       d="m 136.39453,89.511719 c -16.79437,0.533342 -33.19489,5.582282 -48.133761,13.094641 -12.508626,6.28189 -24.122056,14.22373 -34.987331,23.02059 -0.317818,13.83919 -0.637191,27.67835 -0.953126,41.51758 12.012582,-11.00759 24.65712,-21.4632 38.806612,-29.65326 9.267956,-5.35678 19.109276,-9.77022 29.554996,-12.26246 8.05857,-1.92146 16.43207,-2.5877 24.68384,-1.47071 8.28424,1.08096 16.40429,3.90769 23.5636,8.27944 10.87431,6.49595 19.76846,15.8794 27.00766,26.16781 7.80246,11.00601 13.79018,23.18736 18.83805,35.65113 0.8937,2.15262 1.76127,4.316 2.6429,6.4736 2.17329,-10.86409 3.46254,-22.01121 2.4354,-33.08723 -1.54067,-18.45292 -8.59177,-36.57643 -20.69647,-50.67561 -10.68494,-12.42491 -25.35504,-21.445941 -41.38178,-25.004824 -6.99797,-1.596708 -14.20817,-2.248273 -21.38059,-2.050697 z" />
    <path
       id="path1073-4-3-4"
       style="font-variation-settings:normal;vector-effect:none;fill:#466100;fill-opacity:1;stroke:none;stroke-width:1.32292;stroke-linecap:butt;stroke-linejoin:miter;stroke-miterlimit:4;stroke-dasharray:none;stroke-dashoffset:0;stroke-opacity:1;-inkscape-stroke:none;stop-color:#000000"
       d="m 112.42773,106.22852 c -17.547404,0.47498 -34.671466,5.87977 -50.18154,13.9059 -11.924645,6.14662 -23.027027,13.79451 -33.435643,22.23472 -0.318718,15.42119 -0.633532,30.84246 -0.951172,46.26367 12.713432,-11.65336 26.161473,-22.7183 41.150391,-31.30664 9.761924,-5.59656 20.219884,-10.21033 31.279294,-12.57812 9.17882,-1.97963 18.81046,-2.31393 28.05218,-0.2835 11.28381,2.37469 21.60872,8.38584 30.06901,16.15373 9.04055,8.27981 16.25035,18.48767 22.121,29.12977 3.92496,7.12663 7.25846,14.57996 10.32227,22.13281 0.28349,0.88812 1.33538,1.21731 2.13476,0.82812 0.93555,-0.36822 1.10311,-1.42726 1.17737,-2.30429 2.63581,-15.33465 2.04262,-31.33443 -2.60555,-46.23083 -4.52811,-14.68633 -12.84018,-28.31256 -24.40694,-38.50602 -10.42445,-9.27105 -23.43197,-15.57186 -37.15511,-18.05846 -5.78926,-1.0645 -11.68624,-1.4975 -17.57032,-1.38086 z" />
    <path
       id="rect4774-9-5"
       style="mix-blend-mode:normal;fill:#466100;fill-opacity:1;stroke:none;stroke-width:1.82273;stroke-linejoin:round;stroke-opacity:1;filter:url(#filter1636)"
       d="m 58.318359,111.0332 c -5.472786,0.35211 -10.379788,3.31613 -14.402146,6.86736 -11.994674,9.69564 -24.192617,19.14557 -36.0159398,29.04927 -7.80807824,7.99862 -9.2878892,21.42526 -3.2390008,30.85852 2.9786701,4.90196 5.3305157,10.31579 9.4487016,14.41529 5.917572,5.45699 15.52825,6.64137 22.401875,2.29931 4.531637,-2.65373 8.263339,-6.40825 12.476717,-9.50447 9.919021,-7.96319 19.978175,-15.76178 29.66681,-24.00438 7.694601,-8.10612 8.995138,-21.53428 2.846698,-30.90014 -2.997338,-4.90084 -5.300254,-10.39403 -9.597486,-14.35425 -3.697075,-3.24205 -8.675272,-4.97264 -13.586229,-4.72651 z" />
    <path
       id="path1073-4-2-8"
       style="font-variation-settings:normal;mix-blend-mode:normal;vector-effect:none;fill:#466100;fill-opacity:1;stroke:none;stroke-width:1.32292;stroke-linecap:butt;stroke-linejoin:miter;stroke-miterlimit:4;stroke-dasharray:none;stroke-dashoffset:0;stroke-opacity:1;-inkscape-stroke:none;filter:url(#filter1632);stop-color:#000000"
       d="m 158.83008,70.265625 c -19.10892,0.592226 -37.71422,6.719059 -54.41602,15.804687 -11.585785,6.270635 -22.384546,13.908183 -32.583982,22.224608 -0.38946,18.18032 -0.779581,36.36063 -1.166016,54.54102 14.970404,-13.87197 30.449818,-27.57742 48.445948,-37.39495 10.40403,-5.67753 21.68714,-10.21567 33.50854,-11.7362 7.48114,-0.98168 15.12669,-0.6475 22.47715,1.20927 3.76767,0.96938 7.65882,2.42082 11.18236,4.1821 12.24363,6.08825 22.04467,16.22405 29.83131,27.37179 7.74194,11.07549 13.49954,23.38839 18.54101,35.85815 2.04487,5.04361 4.11343,10.07758 6.16798,15.11726 2.87262,-13.14826 5.59288,-26.49125 5.28017,-40.01936 -0.49901,-21.16543 -7.92109,-42.32077 -21.68539,-58.518108 -13.00126,-15.332551 -31.87695,-25.587237 -51.85944,-27.940781 -4.55069,-0.559707 -9.13968,-0.770357 -13.72362,-0.699486 z" />
    <path
       id="path1073-4-5-4-5"
       style="font-variation-settings:normal;mix-blend-mode:normal;vector-effect:none;fill:#466100;fill-opacity:1;stroke:none;stroke-width:1.32292;stroke-linecap:butt;stroke-linejoin:miter;stroke-miterlimit:4;stroke-dasharray:none;stroke-dashoffset:0;stroke-opacity:1;-inkscape-stroke:none;filter:url(#filter1628);stop-color:#000000"
       d="m 136.10742,85.818359 c -18.63375,0.661913 -36.779452,6.576912 -53.117186,15.361331 -11.881268,6.35521 -22.944229,14.14252 -33.380859,22.64062 -0.395272,17.3112 -0.792616,34.62235 -1.185547,51.9336 13.222865,-12.27547 26.780151,-24.35174 42.296691,-33.70609 10.242041,-6.13777 21.251131,-11.22036 32.928991,-13.66406 9.5905,-2.06913 19.65366,-1.97882 29.16663,0.67533 6.1585,1.70961 11.96891,4.52906 17.23132,8.07813 11.52192,7.80014 20.55334,18.88544 27.7539,30.6872 5.24206,8.54069 9.53045,17.67238 13.3499,26.95884 2.4752,6.06386 4.94657,12.12948 7.42686,18.19135 2.89169,-13.18172 5.63539,-26.56239 5.29862,-40.12867 -0.51723,-20.8772 -7.76837,-41.72378 -21.18855,-57.82678 -12.12388,-14.54258 -29.46198,-24.684097 -48.14203,-27.892889 -6.07996,-1.075249 -12.26941,-1.443199 -18.43874,-1.307912 z" />
    <path
       id="path1073-4-3-4-0"
       style="font-variation-settings:normal;mix-blend-mode:normal;vector-effect:none;fill:#466100;fill-opacity:1;stroke:none;stroke-width:1.32292;stroke-linecap:butt;stroke-linejoin:miter;stroke-miterlimit:4;stroke-dasharray:none;stroke-dashoffset:0;stroke-opacity:1;-inkscape-stroke:none;filter:url(#filter1624);stop-color:#000000"
       d="m 112.41211,102.52344 c -19.174157,0.55127 -37.860108,6.66534 -54.619141,15.78125 -11.605136,6.28591 -22.431529,13.92336 -32.646485,22.25976 -0.391437,18.88474 -0.780267,37.76953 -1.169922,56.6543 11.868541,-11.0104 24.039003,-21.85676 37.517579,-30.86328 10.458736,-6.94475 21.725168,-12.96397 33.830731,-16.52284 7.737368,-2.25132 15.764838,-3.39174 23.792318,-2.90294 10.04469,0.55072 19.84505,4.05021 28.20292,9.67705 10.40167,6.97811 18.68378,16.69572 25.36781,27.19992 5.86195,9.19976 10.47017,19.07413 14.6241,29.13613 0.50564,1.37451 1.44433,2.64681 2.85297,3.18247 2.50663,1.14121 5.72678,-0.034 6.94501,-2.493 0.75703,-1.3931 0.67529,-3.02827 1.01432,-4.53947 2.96677,-18.92789 0.93434,-38.80043 -6.90221,-56.36329 -6.97568,-15.77281 -18.58282,-29.64028 -33.43896,-38.52345 -13.07815,-7.87354 -28.3901,-11.84089 -43.63273,-11.68386 -0.57943,-0.002 -1.15888,0.001 -1.73831,0.001 z" />
    <rect
       style="fill:#202020;fill-opacity:1;stroke:none;stroke-width:1.83311;stroke-linejoin:round;stroke-opacity:1"
       id="rect4774"
       width="79.690338"
       height="44.467266"
       x="-79.881577"
       y="126.82668"
       transform="matrix(0.78166741,-0.62369549,0.49951872,0.86630309,0,0)"
       ry="16.313099" />
    <path
       id="path1073-4"
       style="font-variation-settings:normal;vector-effect:none;fill:#0a0a0a;fill-opacity:1;stroke:#000000;stroke-width:1.32292;stroke-linecap:butt;stroke-linejoin:miter;stroke-miterlimit:4;stroke-dasharray:none;stroke-dashoffset:0;stroke-opacity:1;-inkscape-stroke:none;stop-color:#000000"
       d="M 77.587593,111.13265 C 175.29186,31.9686 252.08596,101.11247 238.82736,177.21348 211.96383,109.98633 159.58773,74.135313 76.762208,149.39489 Z"
       sodipodi:nodetypes="cccc" />
    <path
       id="path1073-4-5"
       style="font-variation-settings:normal;vector-effect:none;fill:#161616;fill-opacity:1;stroke:#000000;stroke-width:1.32292;stroke-linecap:butt;stroke-linejoin:miter;stroke-miterlimit:4;stroke-dasharray:none;stroke-dashoffset:0;stroke-opacity:1;-inkscape-stroke:none;stop-color:#000000"
       d="M 55.367695,126.6647 C 153.07196,47.500634 229.86606,116.64458 216.60746,192.7455 189.74393,125.5184 137.36779,87.021514 54.54231,162.28108 Z"
       sodipodi:nodetypes="cccc" />
    <path
       id="path1073-4-3"
       style="font-variation-settings:normal;vector-effect:none;fill:#202020;fill-opacity:1;stroke:#000000;stroke-width:1.32292;stroke-linecap:butt;stroke-linejoin:miter;stroke-miterlimit:4;stroke-dasharray:none;stroke-dashoffset:0;stroke-opacity:1;-inkscape-stroke:none;stop-color:#000000"
       d="M 30.904345,143.40003 C 128.60846,64.236049 205.40256,133.37991 192.14396,209.48083 165.28043,142.25373 112.9043,108.51943 30.07896,183.77891"
       sodipodi:nodetypes="ccc" />
  </g>
</svg>
